HIERARCHY
ROOT Hips
{
	OFFSET 0.000000 0.000000 0.000000
	CHANNELS 6 Xposition Yposition Zposition Zrotation Yrotation Xrotation 
	JOINT LHipJoint
	{
		OFFSET 0.000000 0.000000 0.000000
		CHANNELS 3 Zrotation Yrotation Xrotation
		JOINT LeftUpLeg
		{
			OFFSET 1.363060 -1.794630 0.839290
			CHANNELS 3 Zrotation Yrotation Xrotation
			JOINT LeftLeg
			{
				OFFSET 2.448110 -6.726130 0.000000
				CHANNELS 3 Zrotation Yrotation Xrotation
				JOINT LeftFoot
				{
					OFFSET 2.562200 -7.039590 0.000000
					CHANNELS 3 Zrotation Yrotation Xrotation
					JOINT LeftToeBase
					{
						OFFSET 0.157640 -0.433110 2.322550
						CHANNELS 3 Zrotation Yrotation Xrotation
						End Site
						{
							OFFSET 0.000000 0.000000 0.000000
						}
					}
				}
			}
		}
	}
	JOINT RHipJoint
	{
		OFFSET 0.000000 0.000000 0.000000
		CHANNELS 3 Zrotation Yrotation Xrotation
		JOINT RightUpLeg
		{
			OFFSET -1.305520 -1.794630 0.839290
			CHANNELS 3 Zrotation Yrotation Xrotation
			JOINT RightLeg
			{
				OFFSET -2.542530 -6.985550 0.000000
				CHANNELS 3 Zrotation Yrotation Xrotation
				JOINT RightFoot
				{
					OFFSET -2.568260 -7.056230 0.000000
					CHANNELS 3 Zrotation Yrotation Xrotation
					JOINT RightToeBase
					{
						OFFSET -0.164730 -0.452590 2.363150
						CHANNELS 3 Zrotation Yrotation Xrotation
						End Site
						{
							OFFSET 0.000000 0.000000 0.000000
						}
					}
				}
			}
		}
	}
}
MOTION
Frames: 33
Frame Time: 0.008333
7.671512 21.874575 1.735645 53.153779 -80.649481 -11.978912 -10.289960 -1.176196 2.214297 -16.014599 -6.965173 -80.504123 5.959578 6.583437 108.030344 2.348809 12.199748 -7.276190 0.338900 -0.000000 -45.911000 12.573096 2.804220 1.665170 1.536928 -5.159857 -76.272095 -7.469930 -7.947397 112.133831 -0.572553 -0.921730 -11.592195 0.020700 0.000000 -70.209700
7.539462 21.907969 1.726730 52.704279 -80.524387 -9.758742 -10.018712 -1.759927 2.394104 -16.136732 -8.881025 -86.716916 6.988320 7.094679 112.636010 2.377717 12.170350 -9.493507 -0.070100 0.000000 -43.876500 12.389485 3.437696 1.916518 1.594712 -4.637118 -82.412413 -8.786719 -8.487211 117.382606 -0.472750 -0.396010 -13.722494 0.007101 0.000000 -69.054400
7.401151 21.921200 1.719086 52.476099 -80.433669 -7.669259 -9.682043 -2.295806 2.614477 -16.025364 -10.931625 -93.106704 8.032597 7.576711 116.707097 2.405312 12.104525 -11.458208 -0.438300 -0.000000 -42.106699 12.140100 4.054731 2.277569 1.519367 -4.029750 -88.796588 -10.149161 -8.957463 122.129084 -0.410167 -0.021394 -15.615228 -0.008800 -0.000000 -68.199600
7.255657 21.915813 1.711733 52.502678 -80.367123 -5.786525 -9.288727 -2.753330 2.843664 -15.679754 -13.052819 -99.589568 9.056895 8.031062 120.213809 2.434959 12.029340 -13.132321 -0.756600 0.000000 -40.641000 11.831422 4.627184 2.739165 1.291181 -3.365646 -95.386845 -11.510830 -9.351545 126.339479 -0.394660 0.144580 -17.256017 -0.001400 -0.000000 -67.632400
7.102175 21.893899 1.703785 52.768467 -80.310687 -4.146592 -8.855019 -3.104724 3.049313 -15.112284 -15.176620 -106.057769 10.026648 8.463430 123.141076 2.469335 11.970043 -14.487058 -1.019200 0.000000 -39.509000 11.475971 5.126266 3.279355 0.911526 -2.677554 -102.115562 -12.820045 -9.670154 129.985230 -0.431405 0.063460 -18.647288 0.051400 -0.000000 -67.287200
6.940184 21.857739 1.694577 53.209428 -80.252424 -2.741084 -8.402761 -3.328592 3.206509 -14.345953 -17.233401 -112.393547 10.910335 8.882945 125.483549 2.509822 11.945132 -15.510062 -1.223800 -0.000000 -38.717100 11.090613 5.526371 3.867759 0.405480 -1.989632 -108.890853 -14.024465 -9.922178 133.043598 -0.520718 -0.279216 -19.807173 0.164100 0.000000 -67.054000
6.770729 21.810298 1.684978 53.635805 -80.162020 -1.399851 -7.952447 -3.410611 3.315896 -13.380000 -19.219474 -118.529778 11.681636 9.296679 127.237954 2.560147 11.984751 -16.184190 -1.366500 -0.000000 -38.263900 10.693310 5.811104 4.471508 -0.186024 -1.334777 -115.647663 -15.079234 -10.128473 135.498910 -0.658409 -0.869947 -20.757246 0.340800 -0.000000 -66.796300
6.590238 21.754367 1.672464 54.135885 -80.101453 -0.319744 -7.537191 -3.356590 3.346491 -12.325593 -20.931525 -124.252732 12.322264 9.721555 128.444960 2.610668 12.041164 -16.593771 -1.459100 -0.000000 -38.072600 10.305357 5.967488 5.048529 -0.816058 -0.650871 -122.148408 -15.944179 -10.303139 137.349917 -0.835546 -1.665514 -21.547723 0.574100 -0.000000 -66.440700
6.400802 21.693136 1.658180 54.546796 -80.055879 0.666112 -7.171945 -3.178188 3.325898 -11.205099 -22.387798 -129.519294 12.815262 10.158445 129.114089 2.663447 12.126866 -16.756190 -1.501500 0.000001 -38.102400 9.939953 6.000555 5.569202 -1.449289 0.056551 -128.310986 -16.593982 -10.475578 138.588540 -1.039996 -2.594245 -22.202772 0.846900 -0.000001 -65.911000
6.203188 21.628305 1.642303 54.842862 -80.035850 1.591116 -6.869457 -2.894370 3.282752 -10.059253 -23.576175 -134.285322 13.145464 10.607044 129.258802 2.717201 12.229844 -16.717184 -1.497900 0.000000 -38.292200 9.609723 5.918487 6.020323 -2.069928 0.803667 -134.043402 -17.012985 -10.670035 139.212159 -1.257155 -3.565668 -22.746016 1.134800 0.000000 -65.210699
5.997891 21.562280 1.624387 55.087064 -80.060031 2.388048 -6.638847 -2.534387 3.239998 -8.956233 -24.471567 -138.476159 13.298075 11.060495 128.894871 2.768439 12.323887 -16.533734 -1.455000 0.000000 -38.582400 9.323708 5.736815 6.391336 -2.665188 1.599784 -139.220925 -17.191618 -10.902462 139.222005 -1.469842 -4.473471 -23.198915 1.408100 -0.000000 -64.367300
5.785631 21.496950 1.604159 55.364363 -80.142026 2.979674 -6.482670 -2.132345 3.217717 -7.959278 -25.072009 -142.029881 13.260568 11.503895 128.036284 2.813812 12.384442 -16.249344 -1.378199 -0.000000 -38.931200 9.085578 5.477523 6.678647 -3.218027 2.438027 -143.737477 -17.125101 -11.178895 138.621509 -1.659842 -5.212576 -23.563968 1.635100 0.000000 -63.512000
5.567731 21.433647 1.581430 55.771664 -80.288398 3.279746 -6.397208 -1.722493 3.229304 -7.117986 -25.394270 -144.902659 13.024628 11.916229 126.693019 2.850072 12.392118 -15.883283 -1.269500 0.000000 -39.329600 8.894117 5.166856 6.885637 -3.706320 3.303679 -147.514012 -16.815333 -11.492594 137.425268 -1.809748 -5.695552 -23.826323 1.787000 -0.000000 -62.777400
5.345706 21.373436 1.556079 56.400346 -80.499338 3.207874 -6.374550 -1.335007 3.280899 -6.466094 -25.464795 -147.061405 12.589336 12.271803 124.874278 2.874200 12.336475 -15.425626 -1.126300 0.000000 -39.800100 8.744752 4.831783 7.020841 -4.103341 4.178423 -150.500960 -16.269537 -11.825328 135.653425 -1.904710 -5.865697 -23.951546 1.842100 -0.000000 -62.300700
5.121132 21.317026 1.528433 57.301817 -80.773868 2.727473 -6.404027 -0.992984 3.370205 -6.010021 -25.311491 -148.495516 11.962294 12.544107 122.584523 2.883778 12.217166 -14.839370 -0.941799 0.000000 -40.391300 8.630095 4.497974 7.090758 -4.376780 5.047789 -152.670786 -15.503765 -12.150698 133.335876 -1.934112 -5.705104 -23.889143 1.789900 0.000000 -62.195201
4.895767 21.264570 1.499061 58.486482 -81.109412 1.833608 -6.473619 -0.710482 3.490724 -5.735782 -24.958283 -149.210545 11.162346 12.708882 119.829698 2.876958 12.042988 -14.066989 -0.706600 -0.000000 -41.164500 8.542140 4.185899 7.101832 -4.499018 5.900238 -154.025223 -14.543447 -12.439385 130.507003 -1.892834 -5.234484 -23.580191 1.634500 -0.000001 -62.524801
4.670716 21.215713 1.468503 59.951364 -81.499740 0.536392 -6.572042 -0.490146 3.636309 -5.615672 -24.429280 -149.228698 10.217182 12.748688 116.612882 2.852748 11.827936 -13.043666 -0.411500 -0.000000 -42.174600 8.476205 3.907985 7.063108 -4.452778 6.723203 -154.587807 -13.424390 -12.663158 127.208076 -1.781899 -4.506990 -22.967182 1.394701 -0.000000 -63.297900
4.447030 21.169631 1.437812 61.632506 -81.942171 -1.093316 -6.688594 -0.327946 3.797669 -5.604622 -23.743380 -148.592975 9.162085 12.654131 112.939026 2.811258 11.589005 -11.707985 -0.049700 0.000000 -43.453000 8.428344 3.669891 6.978342 -4.226803 7.507074 -154.401972 -12.187751 -12.800901 123.477437 -1.608392 -3.596945 -22.002282 1.101300 -0.000000 -64.477300
4.225041 21.125353 1.407389 63.512765 -82.423583 -3.034956 -6.814418 -0.210777 3.968958 -5.673756 -22.930278 -147.341888 8.034495 12.425527 108.812201 2.752951 11.338867 -10.017585 0.380200 0.000000 -44.993100 8.400022 3.470336 6.858705 -3.829514 8.232619 -153.524673 -10.877975 -12.837536 119.354440 -1.384409 -2.587595 -20.654885 0.791000 0.000000 -65.990600
4.004932 21.081470 1.378316 65.494542 -82.938732 -5.183274 -6.942718 -0.125197 4.143847 -5.780101 -22.015591 -145.538083 6.872145 12.071730 104.239610 2.678855 11.086586 -7.952143 0.874300 -0.000000 -46.755300 8.391994 3.301607 6.709515 -3.266244 8.890538 -152.020102 -9.535361 -12.768757 114.868653 -1.125713 -1.559134 -18.914619 0.500301 -0.000000 -67.746699
3.786319 21.036332 1.351130 67.523886 -83.475560 -7.478582 -7.069299 -0.055398 4.318204 -5.906913 -21.033622 -143.231499 5.707282 11.607957 99.228196 2.589345 10.833729 -5.521606 1.421699 -0.000000 -48.667701 8.406920 3.152591 6.540486 -2.554841 9.468211 -149.957995 -8.194963 -12.596924 110.046070 -0.849233 -0.579230 -16.792326 0.258200 -0.000000 -69.642000
3.568636 20.988811 1.326076 69.578075 -84.026989 -9.895157 -7.192063 0.012634 4.486752 -6.053863 -20.012828 -140.471409 4.565420 11.053814 93.788313 2.483336 10.574387 -2.765338 2.005200 0.000000 -50.641300 8.445925 3.011618 6.359386 -1.713819 9.962780 -147.398499 -6.882278 -12.329358 104.902568 -0.571108 0.301323 -14.317440 0.082900 0.000000 -71.568501
3.350989 20.937459 1.302729 71.858836 -84.605983 -12.646100 -7.307701 0.092050 4.637084 -6.261781 -18.954061 -137.288743 3.464639 10.432343 87.946405 2.357240 10.293585 0.237699 2.597300 0.000000 -52.575100 8.509332 2.872593 6.173301 -0.768315 10.393797 -144.380475 -5.613787 -11.973405 99.445962 -0.304210 1.052418 -11.534190 -0.020700 -0.000000 -73.425700
3.131639 20.880786 1.281974 74.348410 -85.233315 -15.738576 -7.414320 0.180940 4.758641 -6.548552 -17.835397 -133.719081 2.418479 9.763446 81.755298 2.205162 9.966079 3.384634 3.161800 0.000000 -54.387001 8.594113 2.722264 5.980036 0.310535 10.792995 -140.917126 -4.399945 -11.541767 93.696731 -0.057407 1.664492 -8.511188 -0.058100 -0.000000 -75.112300
2.909930 20.818012 1.265497 76.206586 -85.789136 -18.327554 -7.517278 0.274159 4.855636 -6.898806 -16.803991 -129.766067 1.423089 9.043444 75.183257 2.027880 9.598907 6.636613 3.684400 0.000000 -56.073000 8.696861 2.546507 5.767743 1.568162 11.021215 -137.071874 -3.243756 -11.060162 87.682524 0.167931 2.153556 -5.321663 -0.042299 -0.000000 -76.552899
2.685635 20.748414 1.252127 78.057062 -86.377815 -21.030241 -7.618114 0.370311 4.916922 -7.351712 -15.730913 -125.501423 0.473949 8.292339 68.273971 1.818719 9.167274 9.917429 4.132100 0.000000 -57.624300 8.811882 2.334872 5.554664 2.966804 11.210896 -132.858005 -2.133421 -10.525435 81.355863 0.367728 2.503496 -1.978302 0.005200 -0.000000 -77.738700
2.457932 20.670489 1.242821 79.361161 -86.950385 -23.336866 -7.720437 0.446680 4.930675 -7.918610 -14.643358 -120.912376 -0.432100 7.499025 61.064627 1.577444 8.659679 13.180610 4.477799 0.000000 -59.042599 8.924090 2.084892 5.326213 4.548102 11.285898 -128.283785 -1.064698 -9.947193 74.756377 0.546745 2.740066 1.466149 0.066900 0.000000 -78.670600
2.225746 20.582773 1.237646 79.792638 -87.494661 -24.931031 -7.826916 0.485204 4.885265 -8.608406 -13.520419 -116.011788 -1.295854 6.652281 53.607925 1.306214 8.060072 16.409311 4.694400 0.000000 -60.351900 9.017979 1.801476 5.079997 6.309221 11.207625 -123.373906 -0.029141 -9.325013 67.913027 0.709377 2.881559 4.992668 0.128300 0.000000 -79.378401
1.989112 20.484063 1.236297 78.889770 -87.994463 -25.377356 -7.936575 0.461742 4.757636 -9.422370 -12.325305 -110.798936 -2.104312 5.740258 46.000250 1.013342 7.350545 19.607192 4.751700 -0.000000 -61.566500 9.072669 1.503879 4.804755 8.226981 10.915245 -118.138306 0.975499 -8.649344 60.884441 0.857875 2.945842 8.596584 0.182600 -0.000001 -79.905599
1.748295 20.373069 1.238091 76.113060 -88.431082 -24.168157 -8.045768 0.358367 4.522558 -10.349708 -11.016812 -105.295245 -2.827769 4.767711 38.405323 0.713317 6.504601 22.780425 4.613601 0.000000 -62.648900 9.069681 1.224082 4.487755 10.239862 10.338292 -112.606038 1.937954 -7.907042 53.774112 0.990187 2.949821 12.278298 0.230901 -0.000000 -80.315200
1.503722 20.247736 1.241966 70.959064 -88.780317 -20.821261 -8.152577 0.168989 4.160821 -11.363757 -9.567360 -99.566924 -3.425278 3.769578 31.061086 0.427004 5.494961 25.930132 4.244701 -0.000000 -63.649400 8.998618 0.999911 4.112860 12.243924 9.408139 -106.843504 2.826944 -7.091831 46.749060 1.098907 2.910936 16.023649 0.282401 -0.000000 -80.612500
1.256247 20.106410 1.246928 63.183123 -89.013046 -15.092562 -8.261885 -0.097133 3.670101 -12.427381 -7.978945 -93.751412 -3.863666 2.816008 24.277886 0.172969 4.272597 28.998362 3.600599 -0.000000 -64.363600 8.862329 0.859199 3.663763 14.107178 8.084257 -100.969105 3.593658 -6.218508 40.037143 1.171354 2.840613 19.795147 0.347100 0.000001 -80.883000
1.006676 19.946961 1.251542 53.717727 -89.097961 -7.866562 -8.373806 -0.410091 3.082106 -13.478653 -6.311670 -88.035852 -4.137357 1.979199 18.321650 -0.031102 2.842445 31.929961 2.685100 0.000000 -64.941000 8.691622 0.813256 3.139113 15.670305 6.380740 -95.176762 4.184034 -5.333002 33.912636 1.194247 2.749978 23.503222 0.432100 0.000000 -81.074900
